<svg xmlns="http://www.w3.org/2000/svg" width="32" height="32" viewBox="0 0 32 32"><defs><linearGradient id="g1" x1="0" y1="0" x2="0.0" y2="1.0"><stop offset="0" stop-color="#728696"/><stop offset="1" stop-color="#647584"/></linearGradient><linearGradient id="g2" x1="0" y1="0" x2="0.0" y2="1.0"><stop offset="0" stop-color="#4a5863"/><stop offset="1" stop-color="#414d56"/></linearGradient><linearGradient id="g3" x1="0" y1="0" x2="0.0" y2="1.0"><stop offset="0" stop-color="#5a6976"/><stop offset="1" stop-color="#4e5c68"/></linearGradient><linearGradient id="g4" x1="0" y1="0" x2="0.0" y2="1.0"><stop offset="0" stop-color="#d77e73"/><stop offset="1" stop-color="#d05141"/></linearGradient></defs><polygon points="16.00,2.00 26.39,8.00 16.00,14.00 5.61,8.00" fill="url(#g1)" fill-opacity="1.0" stroke="#b5bbc1" stroke-width="1.0" stroke-linejoin="round"/><polygon points="26.39,20.00 16.00,26.00 16.00,14.00 26.39,8.00" fill="url(#g2)" fill-opacity="1.0" stroke="#b5bbc1" stroke-width="1.0" stroke-linejoin="round"/><polygon points="5.61,20.00 5.61,8.00 16.00,14.00 16.00,26.00" fill="url(#g3)" fill-opacity="1.0" stroke="#b5bbc1" stroke-width="1.0" stroke-linejoin="round"/><path d="M22 5 C22 5 17 11 17 14.5 C17 17.3 19.2 19.5 22 19.5 C24.8 19.5 27 17.3 27 14.5 C27 11 22 5 22 5 Z" fill="url(#g4)" fill-opacity="1.0" stroke="#1c1d20" stroke-width="1.0" stroke-linecap="round" stroke-linejoin="round"/></svg>
