<svg xmlns="http://www.w3.org/2000/svg" width="32" height="32" viewBox="0 0 32 32"><defs><linearGradient id="g1" x1="0" y1="0" x2="0.0" y2="1.0"><stop offset="0" stop-color="#7b778b"/><stop offset="1" stop-color="#6c687a"/></linearGradient><linearGradient id="g2" x1="0" y1="0" x2="0.0" y2="1.0"><stop offset="0" stop-color="#7b778b"/><stop offset="1" stop-color="#6c687a"/></linearGradient><linearGradient id="g3" x1="0" y1="0" x2="0.0" y2="1.0"><stop offset="0" stop-color="#918ca5"/><stop offset="1" stop-color="#7f7b90"/></linearGradient><linearGradient id="g4" x1="0" y1="0" x2="0.0" y2="1.0"><stop offset="0" stop-color="#7b778b"/><stop offset="1" stop-color="#6c687a"/></linearGradient><linearGradient id="g5" x1="0" y1="0" x2="0.0" y2="1.0"><stop offset="0" stop-color="#918ca5"/><stop offset="1" stop-color="#7f7b90"/></linearGradient><linearGradient id="g6" x1="0" y1="0" x2="0.0" y2="1.0"><stop offset="0" stop-color="#9e9ab4"/><stop offset="1" stop-color="#8b879e"/></linearGradient><linearGradient id="g7" x1="0" y1="0" x2="0.0" y2="1.0"><stop offset="0" stop-color="#89849b"/><stop offset="1" stop-color="#787488"/></linearGradient><linearGradient id="g8" x1="0" y1="0" x2="0.0" y2="1.0"><stop offset="0" stop-color="#7b778b"/><stop offset="1" stop-color="#6c687a"/></linearGradient><linearGradient id="g9" x1="0" y1="0" x2="0.0" y2="1.0"><stop offset="0" stop-color="#9792ab"/><stop offset="1" stop-color="#848096"/></linearGradient><linearGradient id="g10" x1="0" y1="0" x2="0.0" y2="1.0"><stop offset="0" stop-color="#9e9ab4"/><stop offset="1" stop-color="#8b879e"/></linearGradient><linearGradient id="g11" x1="0" y1="0" x2="0.0" y2="1.0"><stop offset="0" stop-color="#918ca5"/><stop offset="1" stop-color="#7f7b90"/></linearGradient><linearGradient id="g12" x1="0" y1="0" x2="0.0" y2="1.0"><stop offset="0" stop-color="#89849b"/><stop offset="1" stop-color="#787488"/></linearGradient><linearGradient id="g13" x1="0" y1="0" x2="0.0" y2="1.0"><stop offset="0" stop-color="#7b778b"/><stop offset="1" stop-color="#6c687a"/></linearGradient><linearGradient id="g14" x1="0" y1="0" x2="0.0" y2="1.0"><stop offset="0" stop-color="#9792ab"/><stop offset="1" stop-color="#848096"/></linearGradient><linearGradient id="g15" x1="0" y1="0" x2="0.0" y2="1.0"><stop offset="0" stop-color="#918ca5"/><stop offset="1" stop-color="#7f7b90"/></linearGradient><linearGradient id="g16" x1="0" y1="0" x2="0.0" y2="1.0"><stop offset="0" stop-color="#9e9ab4"/><stop offset="1" stop-color="#8b879e"/></linearGradient><linearGradient id="g17" x1="0" y1="0" x2="0.0" y2="1.0"><stop offset="0" stop-color="#89849b"/><stop offset="1" stop-color="#787488"/></linearGradient><linearGradient id="g18" x1="0" y1="0" x2="0.0" y2="1.0"><stop offset="0" stop-color="#7b778b"/><stop offset="1" stop-color="#6c687a"/></linearGradient><linearGradient id="g19" x1="0" y1="0" x2="0.0" y2="1.0"><stop offset="0" stop-color="#9792ab"/><stop offset="1" stop-color="#848096"/></linearGradient><linearGradient id="g20" x1="0" y1="0" x2="0.0" y2="1.0"><stop offset="0" stop-color="#918ca5"/><stop offset="1" stop-color="#7f7b90"/></linearGradient><linearGradient id="g21" x1="0" y1="0" x2="0.0" y2="1.0"><stop offset="0" stop-color="#9e9ab4"/><stop offset="1" stop-color="#8b879e"/></linearGradient><linearGradient id="g22" x1="0" y1="0" x2="0.0" y2="1.0"><stop offset="0" stop-color="#89849b"/><stop offset="1" stop-color="#787488"/></linearGradient><linearGradient id="g23" x1="0" y1="0" x2="0.0" y2="1.0"><stop offset="0" stop-color="#9792ab"/><stop offset="1" stop-color="#848096"/></linearGradient><linearGradient id="g24" x1="0" y1="0" x2="0.0" y2="1.0"><stop offset="0" stop-color="#918ca5"/><stop offset="1" stop-color="#7f7b90"/></linearGradient><linearGradient id="g25" x1="0" y1="0" x2="0.0" y2="1.0"><stop offset="0" stop-color="#9e9ab4"/><stop offset="1" stop-color="#8b879e"/></linearGradient><linearGradient id="g26" x1="0" y1="0" x2="0.0" y2="1.0"><stop offset="0" stop-color="#89849b"/><stop offset="1" stop-color="#787488"/></linearGradient><linearGradient id="g27" x1="0" y1="0" x2="0.0" y2="1.0"><stop offset="0" stop-color="#9792ab"/><stop offset="1" stop-color="#848096"/></linearGradient><linearGradient id="g28" x1="0" y1="0" x2="0.0" y2="1.0"><stop offset="0" stop-color="#9e9ab4"/><stop offset="1" stop-color="#8b879e"/></linearGradient><linearGradient id="g29" x1="0" y1="0" x2="0.0" y2="1.0"><stop offset="0" stop-color="#89849b"/><stop offset="1" stop-color="#787488"/></linearGradient><linearGradient id="g30" x1="0" y1="0" x2="0.0" y2="1.0"><stop offset="0" stop-color="#9792ab"/><stop offset="1" stop-color="#848096"/></linearGradient></defs><polygon points="18.60,8.50 21.20,7.07 18.60,8.57 16.00,10.00" fill="url(#g1)" fill-opacity="1.0" stroke="#b8bbbe" stroke-width="0.4" stroke-linejoin="round"/><polygon points="16.00,10.00 18.60,8.57 16.00,10.07 13.40,11.50" fill="url(#g2)" fill-opacity="1.0" stroke="#b8bbbe" stroke-width="0.4" stroke-linejoin="round"/><polygon points="21.20,7.07 23.79,7.50 21.20,9.00 18.60,8.57" fill="url(#g3)" fill-opacity="1.0" stroke="#b8bbbe" stroke-width="0.4" stroke-linejoin="round"/><polygon points="13.40,11.50 16.00,10.07 13.40,11.57 10.80,13.00" fill="url(#g4)" fill-opacity="1.0" stroke="#b8bbbe" stroke-width="0.4" stroke-linejoin="round"/><polygon points="18.60,8.57 21.20,9.00 18.60,10.50 16.00,10.07" fill="url(#g5)" fill-opacity="1.0" stroke="#b8bbbe" stroke-width="0.4" stroke-linejoin="round"/><polygon points="23.79,7.50 26.39,10.07 23.79,11.57 21.20,9.00" fill="url(#g6)" fill-opacity="1.0" stroke="#b8bbbe" stroke-width="0.4" stroke-linejoin="round"/><polygon points="28.99,14.50 31.59,20.00 28.99,21.50 26.39,16.00" fill="url(#g7)" fill-opacity="1.0" stroke="#b8bbbe" stroke-width="0.4" stroke-linejoin="round"/><polygon points="10.80,13.00 13.40,11.57 10.80,13.07 8.21,14.50" fill="url(#g8)" fill-opacity="1.0" stroke="#b8bbbe" stroke-width="0.4" stroke-linejoin="round"/><polygon points="26.39,10.07 28.99,14.50 26.39,16.00 23.79,11.57" fill="url(#g9)" fill-opacity="1.0" stroke="#b8bbbe" stroke-width="0.4" stroke-linejoin="round"/><polygon points="21.20,9.00 23.79,11.57 21.20,13.07 18.60,10.50" fill="url(#g10)" fill-opacity="1.0" stroke="#b8bbbe" stroke-width="0.4" stroke-linejoin="round"/><polygon points="16.00,10.07 18.60,10.50 16.00,12.00 13.40,11.57" fill="url(#g11)" fill-opacity="1.0" stroke="#b8bbbe" stroke-width="0.4" stroke-linejoin="round"/><polygon points="26.39,16.00 28.99,21.50 26.39,23.00 23.79,17.50" fill="url(#g12)" fill-opacity="1.0" stroke="#b8bbbe" stroke-width="0.4" stroke-linejoin="round"/><polygon points="8.21,14.50 10.80,13.07 8.21,14.57 5.61,16.00" fill="url(#g13)" fill-opacity="1.0" stroke="#b8bbbe" stroke-width="0.4" stroke-linejoin="round"/><polygon points="23.79,11.57 26.39,16.00 23.79,17.50 21.20,13.07" fill="url(#g14)" fill-opacity="1.0" stroke="#b8bbbe" stroke-width="0.4" stroke-linejoin="round"/><polygon points="13.40,11.57 16.00,12.00 13.40,13.50 10.80,13.07" fill="url(#g15)" fill-opacity="1.0" stroke="#b8bbbe" stroke-width="0.4" stroke-linejoin="round"/><polygon points="18.60,10.50 21.20,13.07 18.60,14.57 16.00,12.00" fill="url(#g16)" fill-opacity="1.0" stroke="#b8bbbe" stroke-width="0.4" stroke-linejoin="round"/><polygon points="23.79,17.50 26.39,23.00 23.79,24.50 21.20,19.00" fill="url(#g17)" fill-opacity="1.0" stroke="#b8bbbe" stroke-width="0.4" stroke-linejoin="round"/><polygon points="5.61,16.00 8.21,14.57 5.61,16.07 3.01,17.50" fill="url(#g18)" fill-opacity="1.0" stroke="#b8bbbe" stroke-width="0.4" stroke-linejoin="round"/><polygon points="21.20,13.07 23.79,17.50 21.20,19.00 18.60,14.57" fill="url(#g19)" fill-opacity="1.0" stroke="#b8bbbe" stroke-width="0.4" stroke-linejoin="round"/><polygon points="10.80,13.07 13.40,13.50 10.80,15.00 8.21,14.57" fill="url(#g20)" fill-opacity="1.0" stroke="#b8bbbe" stroke-width="0.4" stroke-linejoin="round"/><polygon points="16.00,12.00 18.60,14.57 16.00,16.07 13.40,13.50" fill="url(#g21)" fill-opacity="1.0" stroke="#b8bbbe" stroke-width="0.4" stroke-linejoin="round"/><polygon points="21.20,19.00 23.79,24.50 21.20,26.00 18.60,20.50" fill="url(#g22)" fill-opacity="1.0" stroke="#b8bbbe" stroke-width="0.4" stroke-linejoin="round"/><polygon points="18.60,14.57 21.20,19.00 18.60,20.50 16.00,16.07" fill="url(#g23)" fill-opacity="1.0" stroke="#b8bbbe" stroke-width="0.4" stroke-linejoin="round"/><polygon points="8.21,14.57 10.80,15.00 8.21,16.50 5.61,16.07" fill="url(#g24)" fill-opacity="1.0" stroke="#b8bbbe" stroke-width="0.4" stroke-linejoin="round"/><polygon points="13.40,13.50 16.00,16.07 13.40,17.57 10.80,15.00" fill="url(#g25)" fill-opacity="1.0" stroke="#b8bbbe" stroke-width="0.4" stroke-linejoin="round"/><polygon points="18.60,20.50 21.20,26.00 18.60,27.50 16.00,22.00" fill="url(#g26)" fill-opacity="1.0" stroke="#b8bbbe" stroke-width="0.4" stroke-linejoin="round"/><polygon points="16.00,16.07 18.60,20.50 16.00,22.00 13.40,17.57" fill="url(#g27)" fill-opacity="1.0" stroke="#b8bbbe" stroke-width="0.4" stroke-linejoin="round"/><polygon points="10.80,15.00 13.40,17.57 10.80,19.07 8.21,16.50" fill="url(#g28)" fill-opacity="1.0" stroke="#b8bbbe" stroke-width="0.4" stroke-linejoin="round"/><polygon points="16.00,22.00 18.60,27.50 16.00,29.00 13.40,23.50" fill="url(#g29)" fill-opacity="1.0" stroke="#b8bbbe" stroke-width="0.4" stroke-linejoin="round"/><polygon points="13.40,17.57 16.00,22.00 13.40,23.50 10.80,19.07" fill="url(#g30)" fill-opacity="1.0" stroke="#b8bbbe" stroke-width="0.4" stroke-linejoin="round"/></svg>
