<svg xmlns="http://www.w3.org/2000/svg" width="32" height="32" viewBox="0 0 32 32"><defs><linearGradient id="g1" x1="0" y1="0" x2="0.0" y2="1.0"><stop offset="0" stop-color="#7c858c"/><stop offset="1" stop-color="#6d747b"/></linearGradient><linearGradient id="g2" x1="0" y1="0" x2="0.0" y2="1.0"><stop offset="0" stop-color="#51575c"/><stop offset="1" stop-color="#474c50"/></linearGradient><linearGradient id="g3" x1="0" y1="0" x2="0.0" y2="1.0"><stop offset="0" stop-color="#62686e"/><stop offset="1" stop-color="#565b60"/></linearGradient></defs><polygon points="16.00,10.50 22.06,14.00 16.00,17.50 9.94,14.00" fill="url(#g1)" fill-opacity="1.0" stroke="#b8bbbe" stroke-width="1.0" stroke-linejoin="round"/><polygon points="22.06,21.00 16.00,24.50 16.00,17.50 22.06,14.00" fill="url(#g2)" fill-opacity="1.0" stroke="#b8bbbe" stroke-width="1.0" stroke-linejoin="round"/><polygon points="9.94,21.00 9.94,14.00 16.00,17.50 16.00,24.50" fill="url(#g3)" fill-opacity="1.0" stroke="#b8bbbe" stroke-width="1.0" stroke-linejoin="round"/><polyline points="6.58,22.60 5.58,20.86 4.89,18.98 4.54,17.00 4.54,15.00 4.89,13.02 5.58,11.14 6.58,9.40 7.87,7.87 9.40,6.58 11.14,5.58 13.02,4.89 15.00,4.54 17.00,4.54 18.98,4.89 20.86,5.58 22.60,6.58 24.13,7.87 25.42,9.40 26.42,11.14 27.11,13.02 27.46,15.00 27.46,17.00 27.11,18.98 26.42,20.86" fill="none" stroke="#1d1d1e" stroke-width="4.8" stroke-linecap="round" stroke-linejoin="round"/><polyline points="6.58,22.60 5.58,20.86 4.89,18.98 4.54,17.00 4.54,15.00 4.89,13.02 5.58,11.14 6.58,9.40 7.87,7.87 9.40,6.58 11.14,5.58 13.02,4.89 15.00,4.54 17.00,4.54 18.98,4.89 20.86,5.58 22.60,6.58 24.13,7.87 25.42,9.40 26.42,11.14 27.11,13.02 27.46,15.00 27.46,17.00 27.11,18.98 26.42,20.86" fill="none" stroke="#c7c9cb" stroke-width="2.8" stroke-linecap="round" stroke-linejoin="round"/><polygon points="24.52,24.94 23.43,19.47 29.41,22.25" fill="#c7c9cb" fill-opacity="1.0" stroke="#1d1d1e" stroke-width="1.0" stroke-linejoin="round"/></svg>
